<svg width="21" height="20" viewBox="0 0 21 20" fill="none" xmlns="http://www.w3.org/2000/svg">
<path d="M10.9881 0C5.46539 0 0.988281 4.49365 0.988281 10.0367C0.988281 14.7436 4.21702 18.6932 8.57253 19.778V13.104H6.51057V10.0367H8.57253V8.7151C8.57253 5.29899 10.1129 3.7156 13.4544 3.7156C14.088 3.7156 15.1812 3.84046 15.6284 3.96491V6.74509C15.3924 6.7202 14.9824 6.70775 14.4732 6.70775C12.8336 6.70775 12.2001 7.33123 12.2001 8.95196V10.0367H15.4664L14.9052 13.104H12.2001V20C17.1516 19.3998 20.9883 15.1683 20.9883 10.0367C20.9879 4.49365 16.5108 0 10.9881 0Z" fill="#FCF4EC"/>
</svg>
